<svg xmlns="http://www.w3.org/2000/svg" viewBox="0 0 512 512" role="img" aria-label="fsdecryptGUI">
	<rect width="512" height="512" rx="104" fill="#151a1f"/>
	<path d="M132 184c0-26.5 21.5-48 48-48h152c26.5 0 48 21.5 48 48v40h-52v-38c0-8.8-7.2-16-16-16H200c-8.8 0-16 7.2-16 16v38h-52v-40z" fill="#e5edf2"/>
	<rect x="104" y="216" width="304" height="168" rx="34" fill="#6fd49e"/>
	<path d="M104 250c0-18.8 15.2-34 34-34h236c18.8 0 34 15.2 34 34v4H104v-4z" fill="#8fe0b5"/>
	<circle cx="256" cy="294" r="28" fill="#151a1f"/>
	<path d="M244 316h24l14 40h-52l14-40z" fill="#151a1f"/>
</svg>
