<svg xmlns="http://www.w3.org/2000/svg" viewBox="0 0 512 512">
	<rect width="512" height="512" rx="112" fill="#101418"/>
	<path d="M112 170c0-22 18-40 40-40h80c13 0 25 6 33 16l22 28h73c22 0 40 18 40 40v150c0 22-18 40-40 40H152c-22 0-40-18-40-40V170z" fill="#8fd7b3"/>
	<path d="M142 220h228c18 0 32 14 32 32v112c0 22-18 40-40 40H150c-22 0-40-18-40-40V252c0-18 14-32 32-32z" fill="#5abf91"/>
	<circle cx="256" cy="306" r="52" fill="#101418"/>
	<path d="M256 248c24 0 44 20 44 44v20h-24v-20c0-11-9-20-20-20s-20 9-20 20v20h-24v-20c0-24 20-44 44-44z" fill="#e8edf2"/>
	<rect x="196" y="298" width="120" height="82" rx="18" fill="#e8edf2"/>
	<circle cx="256" cy="338" r="12" fill="#101418"/>
	<path d="M251 348h10l6 20h-22l6-20z" fill="#101418"/>
</svg>
